{"title":"Om Santhi Osana (2014) Malayalam - HDRip - 720p - x264 - AC3 -5","uid":10396554,"size":2682101324,"categoryP":"video","categoryS":"hd___movies","magnet":"?xt=urn:btih:26b7bdb32e3b5849fc226a43df53092ff046ccaa&amp;dn=%09Om+Santhi+Osana+%282014%29+Malayalam+-+HDRip+-+720p+-+x264+-+AC3+-5&amp;tr=udp%3A%2F%2Ftracker.openbittorrent.com%3A80&amp;tr=udp%3A%2F%2Fopen.demonii.com%3A1337&amp;tr=udp%3A%2F%2Ftracker.coppersurfer.tk%3A6969&amp;tr=udp%3A%2F%2Fexodus.desync.com%3A6969","seeders":3,"leechers":1,"uploader":"kogegu","files":1,"time":1403273932,"description":" &lt;a href=&quot;http://imageshack.com/a/img839/7069/aztw.jpg&quot; rel=&quot;nofollow&quot; target=&quot;_NEW&quot;&gt;http://imageshack.com/a/img839/7069/aztw.jpg&lt;/a&gt;\n\n\nCode:\nGeneral\nUnique ID                                : 178865318261400343742073107788984897848 (0x8690350E05756225A368CC439CFA5138)\nComplete name                            : D:Idm downloadsOm.Santhi.Osana.2014.HDRip.720p.x264.AC3.5.1.ESub-MOK.mkv\nFormat                                  : Matroska\nFormat version                          : Version 2\nFile size                                : 2.50 GiB\nDuration                                : 2h 9mn\nOverall bit rate                        : 2 761 Kbps\nEncoded date                            : UTC 2014-05-30 14:26:42\nWriting application                      : mkvmerge v6.5.0 ('Isn't she lovely') built on Oct 20 2013 12:50:05\nWriting library                          : libebml v1.3.0 + libmatroska v1.4.1\n\nVideo\nID                                      : 1\nFormat                                  : AVC\nFormat/Info                              : Advanced Video Codec\nFormat profile                          : &lt;a class=&quot;__cf_email__&quot; href=&quot;/cdn-cgi/l/email-protection&quot; data-cfemail=&quot;5119383639111d657f60&quot;&gt;[email&amp;#160;protected]&lt;/a&gt;&lt;script cf-hash='f9e31' type=&quot;text/javascript&quot;&gt;\n/* &lt;![CDATA[ */!function(){try{var t=&quot;currentScript&quot;in document?document.currentScript:function(){for(var t=document.getElementsByTagName(&quot;script&quot;),e=t.length;e--;)if(t[e].getAttribute(&quot;cf-hash&quot;))return t[e]}();if(t&amp;&amp;t.previousSibling){var e,r,n,i,c=t.previousSibling,a=c.getAttribute(&quot;data-cfemail&quot;);if(a){for(e=&quot;&quot;,r=parseInt(a.substr(0,2),16),n=2;a.length-n;n+=2)i=parseInt(a.substr(n,2),16)^r,e+=String.fromCharCode(i);e=document.createTextNode(e),c.parentNode.replaceChild(e,c)}}}catch(u){}}();/* ]]&gt; */&lt;/script&gt;\nFormat settings, CABAC                  : Yes\nFormat settings, ReFrames                : 4 frames\nCodec ID                                : V_MPEG4/ISO/AVC\nDuration                                : 2h 9mn\nBit rate                                : 2 311 Kbps\nWidth                                    : 1 280 pixels\nHeight                                  : 540 pixels\nDisplay aspect ratio                    : 2.40:1\nFrame rate mode                          : Constant\nFrame rate                              : 23.976 fps\nColor space                              : YUV\nChroma subsampling                      : 4:2:0\nBit depth                                : 8 bits\nScan type                                : Progressive\nBits/(Pixel*Frame)                      : 0.139\nStream size                              : 2.04 GiB (82%)\nWriting library                          : x264 core 138 r2358 9e941d1\nEncoding settings                        : cabac=1 / ref=4 / deblock=1:-1:-1 / analyse=0x3:0x113 / me=umh / subme=6 / psy=1 / psy_rd=1.00:0.00 / mixed_ref=1 / me_range=16 / chroma_me=1 / trellis=2 / 8x8dct=1 / cqm=0 / deadzone=21,11 / fast_pskip=1 / chroma_qp_offset=-2 / threads=12 / lookahead_threads=2 / sliced_threads=0 / nr=0 / decimate=1 / interlaced=0 / bluray_compat=0 / constrained_intra=0 / bframes=3 / b_pyramid=2 / b_adapt=2 / b_bias=0 / direct=3 / weightb=1 / open_gop=0 / weightp=2 / keyint=240 / keyint_min=23 / scenecut=40 / intra_refresh=0 / rc_lookahead=40 / rc=2pass / mbtree=1 / bitrate=2311 / ratetol=1.0 / qcomp=0.60 / qpmin=10 / qpmax=51 / qpstep=4 / cplxblur=20.0 / qblur=0.5 / vbv_maxrate=50000 / vbv_bufsize=50000 / nal_hrd=none / ip_ratio=1.40 / aq=1:1.00\nLanguage                                : English\nDefault                                  : Yes\nForced                                  : No\n\nAudio\nID                                      : 2\nFormat                                  : AC-3\nFormat/Info                              : Audio Coding 3\nMode extension                          : CM (complete main)\nFormat settings, Endianness              : Big\nCodec ID                                : A_AC3\nDuration                                : 2h 9mn\nBit rate mode                            : Constant\nBit rate                                : 448 Kbps\nChannel count                            : 6 channels\nChannel positions                        : Front: L C R, Side: L R, LFE\nSampling rate                            : 48.0 KHz\nBit depth                                : 16 bits\nCompression mode                        : Lossy\nStream size                              : 415 MiB (16%)\nDefault                                  : Yes\nForced                                  : No\n\n\n\n &lt;a href=&quot;\nhttp://imagizer.imageshack.us/v2/xq90/841/gm7i.png&quot; rel=&quot;nofollow&quot; target=&quot;_NEW&quot;&gt;\nhttp://imagizer.imageshack.us/v2/xq90/841/gm7i.png&lt;/a&gt; &lt;a href=&quot;\nhttp://imagizer.imageshack.us/v2/xq90/845/nfxp.png&quot; rel=&quot;nofollow&quot; target=&quot;_NEW&quot;&gt;\nhttp://imagizer.imageshack.us/v2/xq90/845/nfxp.png&lt;/a&gt; &lt;a href=&quot;\nhttp://imagizer.imageshack.us/v2/xq90/841/6ewy.png&quot; rel=&quot;nofollow&quot; target=&quot;_NEW&quot;&gt;\nhttp://imagizer.imageshack.us/v2/xq90/841/6ewy.png&lt;/a&gt; &lt;a href=&quot;\nhttp://imagizer.imageshack.us/v2/xq90/844/1vef.png&quot; rel=&quot;nofollow&quot; target=&quot;_NEW&quot;&gt;\nhttp://imagizer.imageshack.us/v2/xq90/844/1vef.png&lt;/a&gt; &lt;a href=&quot;\nhttp://imagizer.imageshack.us/v2/xq90/843/rq45.png&quot; rel=&quot;nofollow&quot; target=&quot;_NEW&quot;&gt;\nhttp://imagizer.imageshack.us/v2/xq90/843/rq45.png&lt;/a&gt; &lt;a href=&quot;\nhttp://imagizer.imageshack.us/v2/xq90/837/cneh.png&quot; rel=&quot;nofollow&quot; target=&quot;_NEW&quot;&gt;\nhttp://imagizer.imageshack.us/v2/xq90/837/cneh.png&lt;/a&gt; &lt;a href=&quot;\nhttp://imagizer.imageshack.us/v2/xq90/844/lw6d.png&quot; rel=&quot;nofollow&quot; target=&quot;_NEW&quot;&gt;\nhttp://imagizer.imageshack.us/v2/xq90/844/lw6d.png&lt;/a&gt; &lt;a href=&quot;\nhttp://imagizer.imageshack.us/v2/xq90/844/yp0s.png&quot; rel=&quot;nofollow&quot; target=&quot;_NEW&quot;&gt;\nhttp://imagizer.imageshack.us/v2/xq90/844/yp0s.png&lt;/a&gt; &lt;a href=&quot;\nhttp://imagizer.imageshack.us/v2/xq90/836/v85m.png&quot; rel=&quot;nofollow&quot; target=&quot;_NEW&quot;&gt;\nhttp://imagizer.imageshack.us/v2/xq90/836/v85m.png&lt;/a&gt; &lt;a href=&quot;\nhttp://imagizer.imageshack.us/v2/xq90/839/z0ge.png&quot; rel=&quot;nofollow&quot; target=&quot;_NEW&quot;&gt;\nhttp://imagizer.imageshack.us/v2/xq90/839/z0ge.png&lt;/a&gt; &lt;a href=&quot;\nhttp://imagizer.imageshack.us/v2/xq90/844/gy1r.png&quot; rel=&quot;nofollow&quot; target=&quot;_NEW&quot;&gt;\nhttp://imagizer.imageshack.us/v2/xq90/844/gy1r.png&lt;/a&gt; &lt;a href=&quot;\nhttp://imagizer.imageshack.us/v2/xq90/844/43z2.png&quot; rel=&quot;nofollow&quot; target=&quot;_NEW&quot;&gt;\nhttp://imagizer.imageshack.us/v2/xq90/844/43z2.png&lt;/a&gt;","torrent":{"xt":"urn:btih:26b7bdb32e3b5849fc226a43df53092ff046ccaa","amp;dn":"%09Om+Santhi+Osana+%282014%29+Malayalam+-+HDRip+-+720p+-+x264+-+AC3+-5","amp;tr":["udp%3A%2F%2Ftracker.openbittorrent.com%3A80","udp%3A%2F%2Fopen.demonii.com%3A1337","udp%3A%2F%2Ftracker.coppersurfer.tk%3A6969","udp%3A%2F%2Fexodus.desync.com%3A6969"],"infoHash":"26b7bdb32e3b5849fc226a43df53092ff046ccaa","infoHashBuffer":{"type":"Buffer","data":[38,183,189,179,46,59,88,73,252,34,106,67,223,83,9,47,240,70,204,170]},"announce":[],"urlList":[]}}